<?xml version="1.0" encoding="UTF-8" standalone="no"?>
<svg
   xmlns:dc="http://purl.org/dc/elements/1.1/"
   xmlns:cc="http://creativecommons.org/ns#"
   xmlns:rdf="http://www.w3.org/1999/02/22-rdf-syntax-ns#"
   xmlns:svg="http://www.w3.org/2000/svg"
   xmlns="http://www.w3.org/2000/svg"
   width="450mm"
   height="297mm"
   viewBox="0 0 450 297"
   version="1.1"
   id="svg8">
  <g
     id="g4596">
    <path
        id="path4546"
        d="m 259.41809,208.31909 c 123.30819,-42.65697 125.59508,-10.42778 141.8904,0.53321 l -73.78301,61.85097 z"
        style="fill:#fff;stroke-width:5.14566326;stroke-linecap:butt;stroke-linejoin:miter;stroke-miterlimit:4;stroke-dasharray:none;stroke-opacity:1" />
    <path
        id="path4542"
        d="m 166.19869,277.22205 42.76313,9.08717 43.36287,-1.10011 52.58664,-6.41175 41.96157,-19.74965 12.25145,-10.17198 27.30442,-24.57305 C 241.57082,117.95273 235.73441,202.19748 198.27104,193.29941 l -59.33384,70.02462 z"
        style="fill:#fff;stroke-width:5;stroke-linecap:butt;stroke-linejoin:miter;stroke-miterlimit:4;stroke-dasharray:none;stroke-opacity:1" />
    <path
        id="path4508"
        d="m 55.092956,186.89524 c 113.179074,-58.60491 206.345434,2.54419 299.798034,61.98049 l -54.21302,29.92163 -52.58664,6.41176 -55.83942,-0.53432 -52.58663,-11.75491 -35.7806,-18.16669 -34.154205,-28.85298 z"
        style="fill:#fff;stroke-width:5.90525818;stroke-linecap:butt;stroke-linejoin:miter;stroke-miterlimit:4;stroke-dasharray:none;stroke-opacity:1" />
    <ellipse
        style="fill:none;stroke:#fff;stroke-width:9.28740311;stroke-miterlimit:4;stroke-dasharray:none;stroke-opacity:1"
        ry="111.24033"
        rx="173.22841"
        cy="173.77975"
        cx="226.78572"
        id="path3680" />
    <path
        id="path48"
        d="m 225.58139,148.53178 c 2.13653,-0.59728 3.3015,-2.31138 3.10701,-1.83748 -0.14192,-0.15375 -4.30162,12.06654 -2.2718,13.09621 1.20272,0.13363 4.27632,-6.54811 4.27632,-6.54811 -0.0916,4.01411 -2.82988,10.11426 -1.60362,14.26552 1.83181,-0.83203 3.49503,-5.06888 4.81085,-8.65286 0.16617,2.39439 -0.18318,7.08729 0.30068,7.41673 2.19743,-0.27126 3.95839,-2.65259 4.37654,-7.28309 0.83689,6.58725 0.4743,8.29492 1.20271,9.35443 1.10622,-1.03209 4.01883,-4.90008 3.74177,-10.28987 1.96732,-2.08874 4.17538,-3.94821 4.34313,-7.75082 2.16609,-1.89505 2.60376,-2.92441 3.54132,-4.40995 0.31624,1.21225 4.2231,-3.45577 4.00905,-3.74177 -0.3203,-0.42795 3.34087,-2.6727 3.34087,-2.6727 l 2.80633,-3.4745 c 1.35726,0.5744 2.5818,0.33037 3.40768,-2.37202 2.1475,-0.92842 3.70036,-1.25892 3.14042,-2.97337 1.52363,-1.15703 3.31165,-2.28101 3.4745,-3.60814 0.18106,-0.76855 0.59895,-1.54893 2.53907,-2.40543 0.81765,-1.02033 1.208,0.79173 2.10474,-3.70837 1.83628,-1.16084 2.60179,-2.18131 3.54132,-4.51016 1.94494,-1.22931 2.76032,-2.7193 3.57473,-4.2095 0.01,0.0357 2.16145,-2.95225 2.13816,-4.81085 1.07624,-0.11639 4.22363,-2.28859 4.14268,-1.87089 1.34379,-1.17138 27.24661,21.9962 27.46194,23.72017 0.45597,-1.08467 0.50116,-2.16279 -0.60135,-4.07585 0.47655,-0.96232 1.08133,-1.6682 0.26727,-5.21176 0.2901,-1.64432 0.81433,-0.90816 0.13363,-6.41447 -0.83952,-1.85677 -2.27715,-2.78315 -2.40543,-5.7463 3.44783,-0.25366 5.1482,-2.43017 6.01357,-2.27179 1.36933,-1.17373 2.37375,-4.24502 4.14267,-3.34087 1.04088,-0.79996 0.40353,-1.94715 3.74178,-2.271789 0.73923,-1.802238 2.01645,-1.580999 3.07361,-3.908808 -5.0082,0.425148 -11.77086,0.20447 -18.97615,-0.768401 -5.43448,0.0898 -10.86896,-0.331049 -16.30344,-3.340869 -1.66667,-0.638191 4.50296,-10.2738 6.1472,-19.377041 2.08556,-4.72167 3.78397,-11.115046 4.04245,-14.432555 -0.31903,-1.094431 0.89951,-1.534134 -0.20045,-3.875413 1.0012,-0.621052 1.92325,-1.860056 1.06908,-3.541319 -1.36966,-0.170973 1.4888,-1.575562 0.83521,-4.610399 -0.2027,-0.508471 1.48919,-3.293292 1.20272,-4.276315 -1.46483,-0.701759 2.15766,-3.887126 0.66817,-6.013561 1.89328,-3.136058 1.87285,-4.447151 2.13816,-6.280835 3.70777,-3.108588 4.26099,-7.301447 2.67269,-7.483547 0.7971,0.460647 8.1851,-6.898936 7.34991,-8.15172 -2.14764,-1.523168 -5.95079,3.508554 -10.4235,4.810851 0.019,0.03091 9.81118,-9.159067 8.68625,-11.759861 -0.81811,-1.891422 -11.90865,9.067563 -14.36573,10.824417 2.99276,-5.094343 9.00595,-8.450337 9.42125,-15.434814 -4.48011,1.707736 -8.19627,7.617179 -12.2944,11.425771 2.24443,-3.5253 4.88584,-6.802752 4.2095,-10.156241 -0.99535,-0.49639 -6.57248,6.150665 -11.42578,14.031649 0.0536,-2.059298 1.25553,-4.406742 0.20045,-6.1472 -5.9865,5.918646 -7.59491,13.274387 -11.42577,19.911582 l -6.94901,17.105249 -7.88445,28.998741 c -1.94364,2.16589 -4.5665,4.173199 -10.49033,3.74178 -1.17738,0.500941 -2.32681,0.69432 -3.67495,3.073601 -0.6178,2.705558 0.0874,2.765078 0.26727,3.8754 l 1.60361,-0.133641 c 0.0369,-0.11988 3.2929,2.581269 3.20724,4.67723 -0.0719,1.757979 -15.75157,20.178848 -16.70435,20.178848 -1.06064,0.13258 -7.74319,11.65868 -7.61718,12.56166 0.61738,-1.88872 -9.98031,15.71306 -10.28987,18.30796 -0.19595,1.59248 -0.77861,3.18496 -0.56795,4.77745 z"
        style="fill:#fff;stroke-width:0.665;stroke-linecap:butt;stroke-linejoin:round;stroke-miterlimit:4;stroke-dasharray:none;stroke-opacity:1" />
  </g>
</svg>
