<?xml version="1.0" standalone="no"?>
<!DOCTYPE svg PUBLIC "-//W3C//DTD SVG 20010904//EN"
 "http://www.w3.org/TR/2001/REC-SVG-20010904/DTD/svg10.dtd">
<svg version="1.0" xmlns="http://www.w3.org/2000/svg"
 width="1701.000000pt" height="1701.000000pt" viewBox="0 0 1701.000000 1701.000000"
 preserveAspectRatio="xMidYMid meet">
<metadata>
Created by potrace 1.11, written by Peter Selinger 2001-2013
</metadata>
<g transform="translate(0.000000,1701.000000) scale(0.100000,-0.100000)"
fill="#000000" stroke="none">
<path d="M11838 13984 c-37 -24 -106 -88 -155 -142 -116 -127 -217 -231 -207
-212 4 8 23 36 41 61 53 75 94 173 100 240 l6 61 -24 -12 c-55 -29 -202 -205
-332 -400 -86 -130 -88 -131 -76 -84 16 68 20 158 9 174 -9 13 -17 8 -51 -30
-63 -71 -136 -185 -189 -295 -26 -55 -85 -176 -130 -270 -138 -288 -323 -758
-380 -967 -27 -101 -60 -217 -71 -258 l-21 -75 -162 27 c-88 15 -204 32 -258
38 -53 6 -105 12 -115 14 -10 2 -49 7 -88 10 -38 4 -77 9 -85 11 -8 2 -46 6
-85 9 -38 3 -97 8 -130 11 -33 3 -91 8 -130 10 -38 2 -108 6 -155 10 -349 23
-939 19 -1305 -10 -27 -3 -84 -7 -125 -10 -41 -3 -95 -7 -120 -10 -101 -10
-137 -14 -175 -19 -22 -2 -67 -7 -100 -11 -33 -3 -71 -8 -85 -10 -14 -2 -43
-7 -65 -10 -124 -16 -217 -30 -360 -56 -280 -51 -331 -61 -510 -104 -60 -15
-123 -29 -140 -32 -16 -3 -38 -9 -47 -14 -10 -5 -18 -7 -18 -5 0 3 -11 1 -25
-4 -14 -5 -36 -12 -48 -14 -12 -3 -78 -21 -147 -41 -69 -20 -132 -38 -140 -40
-158 -38 -721 -246 -928 -341 -41 -19 -76 -34 -78 -34 -27 0 -564 -280 -716
-373 -20 -12 -58 -35 -85 -51 -157 -95 -470 -317 -613 -436 -30 -25 -65 -54
-79 -65 -189 -155 -485 -458 -626 -639 -16 -21 -35 -44 -40 -50 -20 -21 -161
-221 -200 -284 -108 -170 -214 -368 -270 -502 -15 -36 -33 -78 -40 -95 -84
-186 -180 -576 -202 -823 -15 -157 -6 -619 12 -675 2 -6 6 -30 9 -52 21 -170
119 -519 196 -700 8 -16 14 -32 15 -35 14 -39 131 -276 163 -330 12 -19 29
-48 38 -65 36 -64 162 -255 230 -345 189 -253 361 -438 645 -695 24 -22 91
-78 149 -125 58 -46 110 -88 115 -93 38 -30 199 -146 295 -211 102 -70 385
-246 394 -246 2 0 43 -23 92 -51 120 -69 451 -232 604 -298 69 -29 143 -61
165 -71 22 -9 85 -34 140 -55 55 -20 129 -48 164 -62 35 -14 71 -26 80 -29 9
-2 70 -22 136 -44 112 -38 344 -110 425 -131 19 -5 42 -11 50 -14 86 -23 180
-47 199 -51 14 -3 79 -18 145 -34 133 -32 291 -65 376 -80 30 -5 96 -16 145
-25 50 -9 106 -19 125 -21 19 -2 60 -9 90 -14 30 -5 80 -12 110 -15 30 -3 62
-8 70 -10 8 -2 40 -7 70 -10 30 -3 66 -8 80 -10 14 -2 59 -7 100 -11 41 -4 89
-8 105 -10 17 -1 64 -5 105 -9 41 -3 102 -7 135 -10 427 -35 1104 -35 1485 0
25 3 81 7 125 10 44 3 94 7 110 9 17 2 62 6 100 10 39 4 81 9 95 11 14 2 48 6
75 9 44 5 81 10 233 31 79 12 114 17 222 36 63 11 194 36 290 55 96 20 186 38
200 40 27 6 450 114 538 138 46 13 104 22 192 31 14 1 74 26 134 54 60 29 145
65 190 82 44 17 90 34 101 39 11 5 31 12 45 16 14 3 43 15 65 25 22 9 85 35
140 57 55 22 116 47 137 56 32 14 37 14 48 1 13 -16 36 -20 42 -7 12 28 136
110 258 171 80 39 168 84 195 99 145 79 219 121 303 174 51 32 95 58 96 58 8
0 272 181 376 258 437 323 835 733 1106 1139 94 141 97 144 264 284 l169 142
-64 50 c-36 27 -65 55 -65 62 0 7 14 45 30 86 50 119 126 356 145 447 2 9 8
37 14 62 5 25 13 61 16 80 3 19 8 42 10 50 2 8 7 39 10 69 4 30 9 63 11 75 23
114 22 529 -1 686 -2 14 -6 46 -9 72 -12 94 -18 125 -47 248 -97 402 -254 753
-506 1127 -44 66 -90 131 -101 144 -11 13 -50 62 -87 109 -172 220 -446 494
-700 699 -462 373 -989 684 -1577 932 -68 28 -136 57 -153 64 -16 7 -68 27
-115 44 -47 18 -94 36 -105 41 -11 5 -103 37 -205 71 -102 34 -187 63 -189 64
-2 2 4 23 13 47 20 54 56 187 71 263 13 66 25 208 19 231 -4 17 1 32 19 54 20
23 24 37 20 62 -3 18 -9 38 -14 44 -6 8 -2 25 12 48 13 23 23 59 25 92 2 30
12 80 24 111 14 37 18 66 14 88 -3 20 0 46 9 67 33 74 39 99 33 129 -4 24 2
47 24 93 17 34 33 84 36 112 5 41 14 59 45 91 71 75 119 202 90 237 -9 11 -5
17 16 32 66 43 243 244 243 276 0 15 -44 26 -71 18 -15 -5 -67 -35 -115 -67
-87 -59 -182 -113 -196 -113 -4 0 26 35 68 78 184 188 280 339 234 367 -17 11
-116 -52 -206 -131 -12 -11 -46 -40 -75 -65 -30 -26 -94 -83 -144 -127 -49
-44 -92 -78 -94 -76 -5 4 44 69 105 140 126 145 148 174 184 249 37 75 62 175
43 175 -4 0 -38 -21 -75 -46z m-2728 -2418 c36 -3 108 -8 160 -11 52 -3 111
-8 130 -10 19 -2 71 -6 115 -10 44 -4 94 -8 110 -10 164 -19 230 -27 245 -30
9 -2 41 -6 71 -10 30 -3 61 -8 69 -10 8 -3 33 -7 55 -10 155 -19 195 -28 195
-42 0 -23 -50 -205 -64 -230 -6 -12 -29 -36 -51 -53 -84 -67 -155 -90 -290
-94 -82 -2 -122 -20 -161 -72 -32 -42 -43 -95 -31 -146 9 -34 13 -38 42 -38
35 0 85 -39 122 -95 30 -45 34 -74 16 -109 -13 -26 -196 -271 -213 -286 -3 -3
-28 -32 -55 -65 -130 -157 -301 -345 -351 -385 -48 -39 -181 -246 -252 -395
-19 -38 -46 -87 -62 -110 -31 -45 -170 -273 -170 -279 0 -2 -21 -40 -46 -83
-86 -144 -136 -259 -154 -351 -9 -48 -13 -97 -10 -110 5 -22 5 -22 59 13 38
25 51 30 46 18 -40 -100 -91 -311 -93 -388 -3 -74 6 -92 37 -73 23 14 46 50
102 157 18 36 34 60 36 54 2 -5 -12 -88 -32 -183 -34 -168 -46 -312 -26 -324
29 -18 115 127 174 294 7 20 9 -1 9 -120 0 -52 4 -105 9 -118 l9 -23 37 21
c21 11 47 35 59 53 26 41 54 122 55 161 1 63 17 -8 23 -105 14 -205 19 -218
60 -168 59 69 104 191 110 295 3 52 7 63 47 107 64 71 98 130 110 190 8 37 23
64 49 93 21 23 50 60 65 83 15 22 33 41 40 41 20 0 82 60 123 120 21 30 64 73
95 95 31 22 77 67 104 100 45 56 50 60 86 57 35 -3 39 0 69 48 24 39 43 56 80
72 49 21 68 42 68 75 0 11 21 35 50 56 34 25 57 53 74 90 21 44 35 58 86 87
56 33 62 39 77 90 12 41 26 64 58 92 23 20 52 58 66 85 13 26 32 54 43 62 54
40 169 215 188 287 10 37 17 43 89 79 77 38 79 39 111 23 60 -28 313 -229 498
-394 19 -17 82 -73 140 -125 58 -51 165 -153 238 -225 73 -72 134 -129 136
-125 8 12 -3 83 -17 110 -12 23 -12 32 -1 52 8 16 11 46 8 89 -3 36 -5 72 -4
80 0 8 2 62 4 119 3 100 2 106 -27 160 -16 31 -36 67 -43 81 -7 14 -16 44 -20
66 -6 40 -5 42 21 42 44 0 210 87 236 124 42 62 72 88 100 88 19 0 34 9 49 30
13 18 37 34 63 42 29 8 58 29 95 67 88 93 98 86 -131 87 -197 0 -310 6 -432
23 -33 5 -105 9 -161 10 -97 2 -117 3 -211 16 -96 13 -315 90 -334 118 -12 17
34 151 106 313 13 27 35 84 50 126 l27 76 41 -13 c125 -38 449 -152 512 -180
17 -8 71 -30 120 -50 50 -20 113 -47 140 -59 28 -13 70 -31 95 -42 53 -22 422
-207 495 -248 199 -113 491 -300 630 -404 251 -190 350 -276 560 -486 238
-238 409 -455 570 -719 49 -83 195 -369 195 -384 0 -5 8 -27 19 -49 42 -90
118 -342 147 -489 4 -22 8 -42 9 -45 1 -3 5 -32 9 -65 4 -33 9 -71 12 -85 32
-208 21 -526 -27 -775 -33 -167 -82 -341 -122 -438 l-16 -38 -65 54 c-250 213
-528 327 -926 381 -216 29 -590 25 -895 -9 -22 -3 -62 -7 -90 -10 -27 -3 -79
-10 -115 -15 -171 -24 -141 -29 -311 57 -135 69 -286 140 -454 213 -27 12 -63
28 -80 35 -16 8 -91 37 -165 65 -74 29 -144 56 -155 60 -57 25 -409 132 -475
145 -8 2 -35 8 -60 15 -50 13 -73 19 -110 26 -14 2 -36 7 -50 10 -14 3 -36 8
-50 10 -14 2 -41 7 -60 10 -19 4 -48 8 -65 10 -16 2 -43 6 -60 8 -34 5 -129
16 -195 21 -64 6 -337 6 -385 1 -22 -3 -67 -7 -100 -10 -249 -22 -554 -112
-813 -241 -59 -29 -147 -76 -196 -104 -86 -50 -90 -51 -120 -38 -219 102
-1077 377 -1346 432 -8 2 -58 13 -110 25 -198 44 -229 51 -360 74 -150 28
-240 42 -315 51 -27 4 -61 8 -75 11 -55 9 -177 22 -370 39 -298 27 -917 27
-1205 0 -16 -2 -66 -6 -110 -10 -44 -4 -88 -9 -97 -10 -9 -2 -48 -7 -85 -10
-37 -4 -70 -9 -73 -10 -3 -2 -29 -6 -59 -10 -30 -4 -61 -8 -70 -10 -9 -1 -36
-6 -61 -10 -25 -4 -54 -9 -65 -11 -11 -3 -35 -7 -54 -10 -47 -8 -57 -10 -162
-33 -52 -11 -107 -22 -124 -25 -54 -10 -367 -93 -475 -125 -58 -18 -112 -34
-120 -36 -30 -8 -376 -127 -405 -140 -16 -7 -91 -36 -165 -65 -135 -53 -182
-73 -318 -136 -40 -19 -75 -34 -77 -34 -2 0 -44 -19 -92 -43 -120 -58 -143
-68 -141 -59 1 4 -4 48 -12 97 -15 100 -20 469 -7 575 14 113 41 276 52 310 3
10 7 27 9 37 10 50 57 209 76 258 83 211 112 277 158 365 220 424 498 768 923
1145 44 40 286 231 341 271 165 118 439 294 457 294 6 0 11 5 11 10 0 6 4 10
9 10 5 0 49 23 98 51 99 58 416 218 538 272 170 75 161 71 350 147 546 217
1291 411 1905 496 25 3 54 7 65 9 48 7 108 15 143 20 20 2 55 7 77 9 38 5 119
13 210 21 247 22 274 24 410 31 66 3 121 7 123 9 5 5 872 -3 942 -9z"/>
</g>
</svg>
